<?xml version="1.0"?>
<svg xmlns="http://www.w3.org/2000/svg" id="outline" viewBox="0 0 512 512" width="180" height="180">
<path d="M476.51758,16h-.124a19.458,19.458,0,0,0-13.00585,4.97656L234.75952,225.95343,204.67969,251.02A56.10493,56.10493,0,0,1,168.8291,264H120a8,8,0,0,0-6.50977,12.6499l20.35645,28.49951A73.67161,73.67161,0,0,0,249.73145,310.273l28.23828-32.94446L490.77734,48.7583A19.4831,19.4831,0,0,0,476.51758,16ZM273.44531,212.75934,295.59912,234.913,272.459,259.76709l-21.4873-26.85889Zm-35.8623,87.1015a57.672,57.672,0,0,1-90.7168-4.01123L135.54492,280H168.8291a72.13417,72.13417,0,0,0,46.09278-16.688l23.92968-19.94128,22.7627,28.45324ZM479.06641,37.85547,306.50879,223.195,285.37646,202.0625,474.06934,32.88965A3.47552,3.47552,0,0,1,476.39355,32h.124a3.48252,3.48252,0,0,1,2.54883,5.85547Z"/><rect x="304" y="120" width="16" height="16"/><path d="M436.03027,134.18213l-8.06054,13.82129A88.97424,88.97424,0,0,1,472,224.58887a80.42813,80.42813,0,0,1-35.88574,67.05371L403.5625,313.34375A7.99943,7.99943,0,0,0,400,320v64a96.10874,96.10874,0,0,1-96,96H204c-94.84082,0-172-77.15869-172-172s77.15918-172,172-172h84V120H204C100.33691,120,16,204.33643,16,308s84.33691,188,188,188H304A112.12706,112.12706,0,0,0,416,384V324.28125l28.98926-19.32617A96.39657,96.39657,0,0,0,488,224.58887,105.02939,105.02939,0,0,0,436.03027,134.18213Z"/><path d="M88,336a24,24,0,0,1,0-48V272a40,40,0,1,0,40,40H112A24.0275,24.0275,0,0,1,88,336Z"/><path d="M162.64355,252.00586a40.00317,40.00317,0,1,0-64.64062,6.45459l11.99414-10.58887a23.99583,23.99583,0,1,1,38.79688-3.87744Z"/><path d="M216,176a23.98469,23.98469,0,0,1,23.24512,17.99414l15.49414-3.98828a40.00433,40.00433,0,1,0-58.74512,44.63769l8.01172-13.8496A24.00378,24.00378,0,0,1,216,176Z"/><path d="M88,392a40,40,0,1,0,40-40A40.04552,40.04552,0,0,0,88,392Zm40-24a24,24,0,1,1-24,24A24.0275,24.0275,0,0,1,128,368Z"/><path d="M176,424a40,40,0,1,0,40-40A40.04552,40.04552,0,0,0,176,424Zm64,0a24,24,0,1,1-24-24A24.0275,24.0275,0,0,1,240,424Z"/><path d="M320,352a56,56,0,1,0,56,56A56.06322,56.06322,0,0,0,320,352Zm0,96a40,40,0,1,1,40-40A40.04552,40.04552,0,0,1,320,448Z"/><path d="M408,224a24.0275,24.0275,0,0,1-24-24H368a40,40,0,1,0,40-40v16a24,24,0,0,1,0,48Z"/><path d="M336,320H305.6123a60.99261,60.99261,0,0,0-47.85937,23.00244A45.068,45.068,0,0,1,222.3877,360H212a43.632,43.632,0,0,1-31.751-13.53955l-11.54394,11.0791A59.49277,59.49277,0,0,0,212,376h10.3877a60.99261,60.99261,0,0,0,47.85937-23.00244A45.068,45.068,0,0,1,305.6123,336H336a40,40,0,0,0,0-80H312v16h24a24,24,0,0,1,0,48Z"/>
</svg>
