<?xml version="1.0" encoding="iso-8859-1"?>
<!-- Generator: Adobe Illustrator 18.0.0, SVG Export Plug-In . SVG Version: 6.00 Build 0)  -->
<!DOCTYPE svg PUBLIC "-//W3C//DTD SVG 1.1//EN" "http://www.w3.org/Graphics/SVG/1.1/DTD/svg11.dtd">
<svg version="1.1" id="Capa_1" xmlns="http://www.w3.org/2000/svg" xmlns:xlink="http://www.w3.org/1999/xlink" x="0px" y="0px"
	 viewBox="0 0 478.305 478.305" style="enable-background:new 0 0 478.305 478.305;" xml:space="preserve">
<g>
	<path d="M344.121,425.627h-5.141l-21.946-48.739c7.618-5.317,14.827-11.34,21.535-18.046
		c29.846-29.84,46.282-69.515,46.281-111.718c0.003-34.592-10.903-67.294-31.57-94.786l6.124-12.26
		c0.593-1.187,0.69-2.56,0.271-3.817s-1.322-2.297-2.509-2.89l-27.934-13.952l9.812-19.645c1.234-2.471,0.232-5.474-2.238-6.708
		l-0.831-0.415l8.247-16.511l0.83,0.415c0.7,0.35,1.466,0.527,2.234,0.527c0.533,0,1.068-0.085,1.583-0.257
		c1.258-0.42,2.298-1.322,2.89-2.508l22.343-44.733c1.234-2.471,0.232-5.474-2.238-6.708L327.119,0.527
		c-1.186-0.592-2.561-0.689-3.817-0.27c-1.258,0.42-2.298,1.322-2.89,2.508l-22.343,44.733c-1.234,2.471-0.232,5.474,2.238,6.708
		l0.838,0.418l-8.247,16.511l-0.837-0.418c-1.186-0.592-2.562-0.689-3.817-0.27c-1.258,0.42-2.298,1.322-2.89,2.508l-47.01,94.119
		l-23.898-11.936c-1.186-0.592-2.56-0.689-3.817-0.27c-1.258,0.42-2.297,1.322-2.89,2.508l-9.641,19.303
		c-1.234,2.471-0.231,5.474,2.239,6.708l9.801,4.895l-12.865,25.757c-1.234,2.471-0.231,5.474,2.239,6.708l13.453,6.72
		c0.701,0.35,1.466,0.527,2.234,0.527c0.533,0,1.068-0.085,1.583-0.257c1.258-0.42,2.297-1.322,2.89-2.508l12.865-25.757
		l5.092,2.543l-16.371,32.776c-0.592,1.187-0.689,2.56-0.27,3.817c0.42,1.258,1.322,2.298,2.509,2.89l13.454,6.719
		c0.717,0.358,1.479,0.528,2.23,0.528c1.835,0,3.602-1.014,4.477-2.767l16.371-32.776l13.424,6.705
		c0.7,0.35,1.466,0.527,2.234,0.527c0.533,0,1.068-0.085,1.583-0.257c1.258-0.42,2.298-1.322,2.89-2.509l0.488-0.977l27.934,13.952
		c0.7,0.35,1.466,0.527,2.234,0.527c0.533,0,1.068-0.085,1.583-0.257c1.258-0.42,2.298-1.322,2.89-2.509l12.406-24.839
		c3.621-0.263,7.138-1.353,10.279-3.16c6.251,14.775,9.421,30.459,9.417,46.718c0.004,34.52-14.752,65.967-38.422,88.078
		c-6.817-1.05-12.591-5.058-15.989-11.16c-3.632-6.522-3.802-14.094-0.466-20.773c1.233-2.47,0.23-5.473-2.239-6.707l-16-7.991
		l0.103-0.206c1.234-2.47,0.231-5.473-2.238-6.707l-122.249-61.06c-2.472-1.234-5.474-0.232-6.708,2.239l-9.641,19.303
		c-0.592,1.187-0.689,2.56-0.27,3.817s1.322,2.297,2.508,2.89l124.797,62.328l-14.231,28.492l-19.715-9.847l0.979-1.961
		c0.592-1.187,0.689-2.56,0.27-3.817s-1.322-2.297-2.508-2.89l-54.983-27.462c-1.187-0.592-2.56-0.689-3.817-0.27
		s-2.297,1.322-2.89,2.508l-13.147,26.322c-0.592,1.187-0.689,2.56-0.27,3.817s1.322,2.297,2.508,2.89l54.983,27.462
		c0.718,0.358,1.479,0.528,2.23,0.528c1.835,0,3.602-1.014,4.477-2.767l0.979-1.961l19.715,9.847l-17.844,35.726
		c-0.762,1.526-0.694,3.334,0.181,4.798s2.435,2.381,4.139,2.434c1.826,0.056,3.517,0.083,5.166,0.083c0.021,0,0.04,0,0.06,0
		c4.054,0,8.084-0.155,12.085-0.456l-15.9,20.977H98.458c-2.761,0-5,2.238-5,5l-0.003,42.678c0,1.326,0.527,2.598,1.464,3.536
		c0.938,0.938,2.209,1.464,3.536,1.464h245.663c2.762,0,5-2.238,5-5l0.003-42.678c0-1.326-0.526-2.598-1.464-3.536
		C346.718,426.154,345.447,425.627,344.121,425.627z M319.761,192.162c-6.887-3.439-9.691-11.841-6.252-18.728
		c2.443-4.89,7.387-7.721,12.514-7.721c2.094,0,4.218,0.472,6.215,1.47c6.887,3.439,9.691,11.841,6.251,18.728l0.001,0
		C335.048,192.797,326.649,195.603,319.761,192.162z M327.124,11.707l35.798,17.88l-4.658,9.326l-35.798-17.88L327.124,11.707z
		 M317.997,29.979l35.798,17.88l-8.748,17.515l-35.798-17.88L317.997,29.979z M310.091,59.092l25.185,12.579l-8.247,16.511
		l-25.185-12.579L310.091,59.092z M249.488,167.144l21.204,10.591c0.718,0.358,1.479,0.528,2.23,0.528
		c1.835,0,3.602-1.014,4.477-2.767c1.234-2.471,0.232-5.474-2.238-6.708l-21.205-10.591l1.521-3.044l14.185,7.085
		c0.718,0.358,1.479,0.528,2.23,0.528c1.835,0,3.602-1.014,4.477-2.767c1.234-2.471,0.232-5.474-2.238-6.708l-14.185-7.085
		l32.121-64.308l35.798,17.88l-44.78,89.644l-35.794-17.878L249.488,167.144z M214.45,166.32l64.165,32.049l-5.169,10.358
		l-64.169-32.05L214.45,166.32z M212.96,216.287l-4.507-2.251l10.631-21.284l4.507,2.251L212.96,216.287z M236.945,237.037
		l-4.507-2.251l14.137-28.303l4.507,2.251L236.945,237.037z M308.576,219.463l-23.461-11.718l39.648-79.38l23.461,11.718
		l-9.603,19.227c-0.617-0.382-1.253-0.743-1.914-1.073c-11.818-5.903-26.237-1.091-32.144,10.729
		c-5.902,11.82-1.09,26.239,10.729,32.143c0.662,0.331,1.334,0.618,2.011,0.882L308.576,219.463z M258.024,298.724l-113.303-56.591
		l5.173-10.357l113.303,56.591L258.024,298.724z M271.756,311.169c0.593-1.187,0.69-2.56,0.271-3.817
		c-0.42-1.258-1.322-2.297-2.509-2.89l-2.547-1.272l2.834-5.674l11.874,5.931c-2.673,8.407-1.803,17.621,2.563,25.459
		c3.543,6.363,9.071,11.242,15.602,14.007c-15.898,12.165-34.91,20.488-55.675,23.49L271.756,311.169z M207.751,345.238
		l-46.037-22.994l2.879-5.765l19.509,9.744c0.718,0.358,1.479,0.528,2.23,0.528c1.835,0,3.602-1.014,4.477-2.767
		c1.234-2.471,0.231-5.474-2.239-6.708l-19.509-9.744l1.331-2.665l46.037,22.994L207.751,345.238z M239.626,353.119l-19.715-9.847
		l2.251-4.507l19.715,9.847L239.626,353.119z M238.827,377.097c66.721-6.103,118.568-62.643,118.562-129.974
		c0.005-18.814-3.914-36.925-11.643-53.885c0.619-0.902,1.186-1.854,1.689-2.86c0,0,0,0,0.001,0
		c3.915-7.839,3.112-16.819-1.318-23.702l2.122-4.249c17.434,24.876,26.612,53.989,26.609,84.696
		c0,39.532-15.396,76.696-43.352,104.646c-27.247,27.242-63.24,42.552-101.651,43.307L238.827,377.097z M252.743,402.999
		c19.837-3.25,38.719-10.226,55.81-20.588l5.951,13.216h-8.258c-2.762,0-5,2.239-5,5s2.238,5,5,5h12.76l2.277,5.057h-38.367
		c-2.762,0-5,2.239-5,5s2.238,5,5,5h42.87l2.226,4.943h-92.421L252.743,402.999z M103.456,468.305l0-4.474h23.659
		c2.761,0,5-2.239,5-5s-2.239-5-5-5h-23.659l0-3.73h46.215c2.761,0,5-2.239,5-5s-2.239-5-5-5h-46.215l0-4.474h235.663l-0.002,18.204
		h-9.97c-2.762,0-5,2.239-5,5s2.238,5,5,5h9.969l0,4.474H103.456z"/>
	<path d="M325.996,174.672c-1.31,0-2.6,0.54-3.53,1.47c-0.93,0.92-1.47,2.21-1.47,3.53c0,1.32,0.54,2.61,1.47,3.54
		c0.931,0.93,2.221,1.46,3.53,1.46c1.32,0,2.61-0.53,3.54-1.46c0.93-0.93,1.46-2.22,1.46-3.54c0-1.32-0.53-2.61-1.46-3.53
		C328.606,175.212,327.316,174.672,325.996,174.672z"/>
	<path d="M314.436,453.831c-1.32,0-2.601,0.53-3.54,1.46c-0.931,0.93-1.46,2.22-1.46,3.54c0,1.32,0.529,2.61,1.46,3.54
		c0.939,0.93,2.229,1.46,3.54,1.46c1.319,0,2.6-0.53,3.529-1.46c0.94-0.94,1.471-2.22,1.471-3.54c0-1.32-0.53-2.6-1.471-3.54
		C317.036,454.362,315.755,453.831,314.436,453.831z"/>
</g>
<g>
</g>
<g>
</g>
<g>
</g>
<g>
</g>
<g>
</g>
<g>
</g>
<g>
</g>
<g>
</g>
<g>
</g>
<g>
</g>
<g>
</g>
<g>
</g>
<g>
</g>
<g>
</g>
<g>
</g>
</svg>
