<svg id="Capa_1" enable-background="new 0 0 512 512" height="512" viewBox="0 0 512 512" width="512" xmlns="http://www.w3.org/2000/svg">
<g><path d="m512 113.5v-45h-369.501v15h354.501v15h-407v75h30v15h-37.5c-4.136 0-7.5-3.364-7.5-7.5v-90c0-4.136 3.364-7.5 7.5-7.5h44.999v-15h-44.999c-12.407 0-22.5 10.094-22.5 22.5v90c0 2.629.458 5.153 1.29 7.5h-61.29v45h15v45h-15v45h61.29c-.833 2.347-1.29 4.871-1.29 7.5v90c0 12.406 10.093 22.5 22.5 22.5h354.5v-15h-354.5c-4.136 0-7.5-3.364-7.5-7.5v-90c0-4.136 3.364-7.5 7.5-7.5h414.5v15h-407v75h407v15h-45v15h60v-45h-15v-45h15v-45h-61.29c.833-2.347 1.29-4.871 1.29-7.5v-90c0-2.629-.458-5.153-1.29-7.5h61.29v-45h-15v-45zm-30 285h-377v-14.999h332v-15h-332v-15.001h377zm-377-240v-15h15v15zm29.999-15h15v45h-15zm-104.999 90h377v15.001h-332v15h332v14.999h-377zm467-45h-67.5-44.999v15h44.999c4.136 0 7.5 3.364 7.5 7.5v90c0 4.136-3.364 7.5-7.5 7.5h-347-67.5v-15h407v-75h-407v-15h354.501v-15h-204.502v-15h332.001zm-15-30h-317.001v-15h272.001v-15h-332v-15h377z"/><path d="m452 368.501h15v15h-15z"/><path d="m45 248.501h15v15h-15z"/><path d="m452 128.5h15v15h-15z"/></g></svg>