<?xml version="1.0" encoding="iso-8859-1"?>
<!-- Generator: Adobe Illustrator 19.0.0, SVG Export Plug-In . SVG Version: 6.00 Build 0)  -->
<svg version="1.1" id="Capa_1" xmlns="http://www.w3.org/2000/svg" xmlns:xlink="http://www.w3.org/1999/xlink" x="0px" y="0px"
	 viewBox="0 0 496.024 496.024" style="enable-background:new 0 0 496.024 496.024;" xml:space="preserve">
<g>
	<g>
		<g>
			<path d="M400.023,189.456V62.992c13.792-3.568,24-16.112,24-30.992c0-17.648-14.352-32-32-32h-112c-17.648,0-32,14.352-32,32
				c0,14.88,10.208,27.424,24,30.992v126.472c-21.376,9.368-40.544,23.512-56,40.976v-71.448c13.792-3.56,24-16.104,24-30.992
				c0-17.648-14.352-32-32-32h-112c-17.648,0-32,14.352-32,32c0,14.88,10.208,27.424,24,30.992v95.328L2.943,447.688
				c-4.432,10.064-3.832,21.368,1.624,31.008C10.599,489.368,22.543,496,35.735,496h232.576c8.056,0,15.64-2.496,21.704-6.856
				c9,2.712,18.216,4.776,27.56,5.824c6.28,0.704,12.52,1.056,18.72,1.056c39.408,0,76.616-14.128,106.344-40.704
				c33.92-30.352,53.384-73.832,53.384-119.32C496.023,271.896,458.519,214.96,400.023,189.456z M282.975,202.216l5.048-2V64h64V48
				h-64h-8c-8.824,0-16-7.176-16-16s7.176-16,16-16h112c8.824,0,16,7.176,16,16s-7.176,16-16,16h-8h-16v16h16v136.216l5.048,2
				c52.728,20.936,87.568,69.728,90.648,125.704c-67.104-0.768-99.176-10.752-130.128-20.44
				c-29.456-9.224-59.968-18.72-118.72-19.416l-14.224-32.32C232.831,231.816,256.135,212.88,282.975,202.216z M104.023,257.68V160
				h64v-16h-64h-8c-8.824,0-16-7.176-16-16c0-8.824,7.176-16,16-16h112c8.824,0,16,7.176,16,16s-7.176,16-16,16h-8h-16v16h16v91.768
				l-0.008,0.008l0.008,0.008v5.904l44.96,102.176c-47.288-1.104-74.544-9.224-100.944-17.096
				c-21.496-6.416-42.096-12.48-71.192-14.224L104.023,257.68z M224.023,384c0,17.648-14.352,32-32,32s-32-14.352-32-32
				c0-6.688,2.08-13.032,5.92-18.448c15.672,3.96,33.736,7.416,56.544,9.184C223.399,377.736,224.023,380.808,224.023,384z
				 M285.559,470.816c-3.208,5.672-9.816,9.184-17.248,9.184H35.735c-7.432,0-14.04-3.512-17.24-9.176
				c-2.944-5.208-3.28-11.296-0.904-16.688l48.352-109.904c30.584,1.128,51.56,7.304,73.52,13.864
				c3.392,1.016,6.84,2.04,10.384,3.064c-3.8,6.976-5.824,14.744-5.824,22.84c0,26.472,21.528,48,48,48s48-21.528,48-48
				c0-2.816-0.288-5.584-0.768-8.32c4.12,0.152,8.392,0.24,12.808,0.272l34.4,78.176
				C288.839,459.52,288.503,465.608,285.559,470.816z M431.967,443.384c-30.952,27.672-70.912,40.336-112.616,35.68
				c-6.192-0.696-12.304-1.952-18.344-3.464c3.968-8.92,4.064-18.912,0.096-27.912l-63.136-143.496
				c51.544,1.288,78.504,9.688,106.848,18.56c32.08,10.048,65.32,20.392,134.792,21.176
				C477.487,381.944,460.527,417.848,431.967,443.384z"/>
			<path d="M376.023,432c22.056,0,40-17.944,40-40c0-22.056-17.944-40-40-40c-22.056,0-40,17.944-40,40
				C336.023,414.056,353.967,432,376.023,432z M376.023,368c13.232,0,24,10.768,24,24s-10.768,24-24,24s-24-10.768-24-24
				S362.791,368,376.023,368z"/>
			<path d="M80.023,400c-17.648,0-32,14.352-32,32s14.352,32,32,32s32-14.352,32-32S97.671,400,80.023,400z M80.023,448
				c-8.824,0-16-7.176-16-16c0-8.824,7.176-16,16-16s16,7.176,16,16C96.023,440.824,88.847,448,80.023,448z"/>
		</g>
	</g>
</g>
<g>
</g>
<g>
</g>
<g>
</g>
<g>
</g>
<g>
</g>
<g>
</g>
<g>
</g>
<g>
</g>
<g>
</g>
<g>
</g>
<g>
</g>
<g>
</g>
<g>
</g>
<g>
</g>
<g>
</g>
</svg>
