<?xml version="1.0" encoding="iso-8859-1"?>
<!-- Generator: Adobe Illustrator 18.0.0, SVG Export Plug-In . SVG Version: 6.00 Build 0)  -->
<!DOCTYPE svg PUBLIC "-//W3C//DTD SVG 1.1//EN" "http://www.w3.org/Graphics/SVG/1.1/DTD/svg11.dtd">
<svg version="1.1" id="Capa_1" xmlns="http://www.w3.org/2000/svg" xmlns:xlink="http://www.w3.org/1999/xlink" x="0px" y="0px"
	 viewBox="0 0 466.698 466.698" style="enable-background:new 0 0 466.698 466.698;" xml:space="preserve">
<g>
	<path d="M419.604,171.884c0-35.843-9.414-71.113-27.225-101.996c-15.398-26.7-37.048-49.979-62.61-67.32
		c-3.409-2.312-7.51-3.099-11.548-2.214c-4.012,0.879-7.53,3.399-9.654,6.913c-4.122,6.824-2.156,15.699,4.476,20.205
		c7.741,5.26,15.052,11.17,21.862,17.611l-6.872,6.867C263.572-8.76,161.744-7.607,98.711,55.426
		c-31.107,31.107-48.239,72.466-48.239,116.458c0,42.321,15.862,82.2,44.761,112.864l-6.891,6.891
		c-5.031-5.327-9.742-10.961-14.069-16.885c-4.733-6.482-13.676-8.141-20.358-3.778c-3.436,2.243-5.831,5.844-6.571,9.88
		c-0.745,4.064,0.181,8.134,2.606,11.461c18.91,25.94,43.941,47.31,72.39,61.798c24.088,12.268,50.73,19.63,77.832,21.629v34.931
		c-26.755,4.995-49.398,23.186-59.882,49.151c-0.623,1.541-0.438,3.291,0.491,4.668c0.93,1.378,2.483,2.204,4.145,2.204h140.492
		c1.662,0,3.215-0.826,4.145-2.204c0.929-1.378,1.114-3.127,0.491-4.668c-10.485-25.965-33.127-44.156-59.882-49.151v-34.908
		C335.92,368.059,419.604,279.564,419.604,171.884z M324.097,62.964c2.815,2.815,2.626,15.373-15.938,44.587
		c-5.16,8.121-11.23,16.729-18.054,25.645l-36.241-36.241c8.915-6.824,17.524-12.893,25.645-18.053
		c21.181-13.459,33.606-17.259,39.911-17.259C321.811,61.643,323.323,62.19,324.097,62.964z M192.359,247.176
		c15.71-12.699,32.091-27.426,48.282-43.439l40.652,40.652c-16.439,15.909-34.509,28.979-53.125,38.596L192.359,247.176z
		 M218.628,287.587c-10.956,4.916-22.036,8.624-33.025,10.986c-26.094,5.607-49.146,3.082-66.676-7.005
		c9.61-2.346,21.852-8.231,36.657-17.638c9.117-5.793,18.827-12.71,28.877-20.51L218.628,287.587z M247.705,196.658
		c16.005-16.265,30.676-32.693,43.299-48.422l35.533,35.533c-9.439,18.723-22.386,36.925-38.204,53.517L247.705,196.658z
		 M297.23,140.32c7.334-9.526,13.859-18.734,19.369-27.406c9.42-14.825,15.3-27.074,17.64-36.69
		c10.098,17.533,12.613,40.605,7.003,66.709c-2.232,10.384-5.666,20.849-10.184,31.214L297.23,140.32z M283.891,141.124
		c-12.54,15.695-27.205,32.148-43.257,48.464l-43.161-43.161c16.315-16.052,32.768-30.717,48.464-43.257L283.891,141.124z
		 M233.57,196.666c-16.241,16.061-32.646,30.776-48.324,43.397l-38.247-38.247c12.621-15.678,27.336-32.083,43.396-48.324
		L233.57,196.666z M177.336,246.295c-9.438,7.284-18.55,13.752-27.115,19.194c-29.215,18.563-41.771,18.752-44.587,15.938
		c-2.815-2.815-2.626-15.373,15.938-44.587c5.442-8.565,11.911-17.677,19.194-27.115L177.336,246.295z M159.412,311.507
		c8.989,0,18.46-1.044,28.292-3.158c12.821-2.755,25.741-7.23,38.455-13.231l26.831,26.831c-12.22,3.057-24.9,4.631-37.822,4.631
		c-24.065,0-47.288-5.465-68.262-15.796C150.961,311.256,155.128,311.507,159.412,311.507z M263.952,318.768l-28.386-28.386
		c18.536-9.935,36.462-23.092,52.8-38.921l32.949,32.949C304.68,300.126,285.151,311.751,263.952,318.768z M328.361,277.314
		l-32.955-32.955c15.74-16.481,28.779-34.532,38.55-53.171l28.432,28.432C355.507,240.919,343.993,260.561,328.361,277.314z
		 M365.5,208.59l-26.878-26.878c5.584-12.14,9.77-24.453,12.397-36.677c3.326-15.478,3.994-30.043,2.12-43.272
		c10.933,21.456,16.726,45.342,16.726,70.12C369.865,184.414,368.377,196.714,365.5,208.59z M274.146,70.461
		c-8.672,5.51-17.88,12.035-27.406,19.369l-33.828-33.828c19.738-8.641,39.337-13.152,57.19-13.152
		c15.162,0,29.053,3.264,40.71,9.976C301.201,55.171,288.959,61.049,274.146,70.461z M238.824,96.057
		c-15.729,12.623-32.157,27.294-48.422,43.299l-40.628-40.628c16.871-16.078,35.143-28.908,53.525-38.196L238.824,96.057z
		 M142.701,91.655l-32.962-32.962c17.04-15.885,36.815-27.212,57.762-33.959l28.372,28.371
		C177.233,62.875,159.183,75.915,142.701,91.655z M183.324,146.42c-16.013,16.191-30.74,32.572-43.439,48.282l-35.808-35.808
		c9.617-18.616,22.687-36.686,38.596-53.125L183.324,146.42z M133.641,202.6c-7.8,10.049-14.717,19.76-20.51,28.877
		c-9.42,14.826-15.295,27.072-17.634,36.688c-10.099-17.533-12.619-40.602-7.008-66.707c2.362-10.989,6.07-22.068,10.986-33.025
		L133.641,202.6z M215.169,336.581c43.992,0,85.351-17.132,116.458-48.239s48.239-72.466,48.239-116.458
		c0-42.32-15.862-82.199-44.76-112.863l6.87-6.865c9.38,9.931,17.618,20.93,24.417,32.719
		c15.186,26.331,23.212,56.418,23.212,87.008c0,96.184-78.251,174.436-174.436,174.436c-27.461,0-54.83-6.54-79.146-18.913
		c-14.794-7.528-28.499-17.248-40.611-28.694l6.893-6.893C132.969,320.719,172.848,336.581,215.169,336.581z M285.099,33.893
		c-13.176-1.839-27.673-1.161-43.073,2.149c-12.223,2.627-24.537,6.813-36.677,12.397l-26.812-26.812
		c12.022-2.91,24.327-4.367,36.632-4.367C239.182,17.26,263.192,22.811,285.099,33.893z M102.641,65.737l32.958,32.958
		c-15.829,16.338-28.986,34.264-38.921,52.8l-28.394-28.394C75.302,101.902,86.927,82.372,102.641,65.737z M65.103,134.062
		l26.839,26.839c-6.001,12.715-10.475,25.635-13.231,38.456c-3.123,14.532-3.897,28.257-2.43,40.831
		c-10.343-20.984-15.809-44.224-15.809-68.303C60.472,158.962,62.046,146.281,65.103,134.062z M58.031,286.426
		c-0.794-1.089-1.096-2.427-0.85-3.767c0.251-1.372,1.033-2.548,2.201-3.311c0.831-0.542,1.768-0.802,2.699-0.802
		c1.566,0,3.116,0.736,4.116,2.105c17.065,23.368,39.642,42.618,65.29,55.668c25.715,13.084,54.652,20,83.682,20
		c101.698,0,184.436-82.737,184.436-184.436c0-32.341-8.489-64.156-24.55-92.004c-13.873-24.055-33.373-45.037-56.391-60.678
		c-2.235-1.519-2.91-4.49-1.536-6.764c0.722-1.195,1.87-2.017,3.234-2.316c1.331-0.292,2.678-0.035,3.794,0.721
		c24.318,16.497,44.915,38.642,59.562,64.041c16.936,29.366,25.888,62.908,25.888,97c0,107.212-87.224,194.436-194.436,194.436
		c-30.637,0-61.167-7.302-88.29-21.115C99.826,331.426,76.019,311.101,58.031,286.426z M277.578,456.698H152.767
		c12.214-22.952,35.962-37.409,62.406-37.409S265.365,433.747,277.578,456.698z M220.173,409.454c-1.657-0.101-3.322-0.165-5-0.165
		s-3.343,0.064-5,0.165v-33.209c1.665,0.041,3.33,0.074,4.996,0.074c1.673,0,3.34-0.023,5.004-0.063V409.454z"/>
	<path d="M165.753,447.42c0,2.761,2.239,5,5,5h54c2.761,0,5-2.239,5-5s-2.239-5-5-5h-54
		C167.991,442.42,165.753,444.659,165.753,447.42z"/>
	<path d="M185.753,429.52c-2.761,0-5,2.239-5,5s2.239,5,5,5h26.8c2.761,0,5-2.239,5-5s-2.239-5-5-5H185.753z"/>
</g>
<g>
</g>
<g>
</g>
<g>
</g>
<g>
</g>
<g>
</g>
<g>
</g>
<g>
</g>
<g>
</g>
<g>
</g>
<g>
</g>
<g>
</g>
<g>
</g>
<g>
</g>
<g>
</g>
<g>
</g>
</svg>
