<svg height="512" viewBox="0 0 128 128" width="512" xmlns="http://www.w3.org/2000/svg"><g><path d="m121.5 4.75h-115a1.75 1.75 0 0 0 -1.75 1.75v115a1.75 1.75 0 0 0 1.75 1.75h115a1.75 1.75 0 0 0 1.75-1.75v-115a1.75 1.75 0 0 0 -1.75-1.75zm-1.75 57.5h-54v-54h54zm-111.5-54h54v54h-54zm0 57.5h54v54h-54zm111.5 54h-54v-54h54z"/><path d="m49.75 33.5h-12.75v-12.75a1.75 1.75 0 0 0 -3.5 0v12.75h-12.75a1.75 1.75 0 0 0 0 3.5h12.75v12.75a1.75 1.75 0 0 0 3.5 0v-12.75h12.75a1.75 1.75 0 0 0 0-3.5z"/><path d="m46.74 81.26a1.748 1.748 0 0 0 -2.474 0l-9.016 9.015-9.016-9.015a1.749 1.749 0 1 0 -2.474 2.474l9.015 9.016-9.015 9.016a1.749 1.749 0 1 0 2.474 2.474l9.016-9.015 9.016 9.015a1.749 1.749 0 0 0 2.474-2.474l-9.015-9.016 9.015-9.016a1.748 1.748 0 0 0 0-2.474z"/><path d="m78.25 37h29a1.75 1.75 0 0 0 0-3.5h-29a1.75 1.75 0 0 0 0 3.5z"/><path d="m82.5 104.753a1.741 1.741 0 0 0 1.237-.513l20.503-20.506a1.749 1.749 0 0 0 -2.474-2.474l-20.506 20.506a1.75 1.75 0 0 0 1.237 2.987z"/><path d="m99.031 94.281a4.751 4.751 0 1 0 3.359 1.392 4.712 4.712 0 0 0 -3.359-1.392zm.885 5.634a1.277 1.277 0 0 1 -1.769 0 1.249 1.249 0 1 1 1.769 0z"/><path d="m86.469 91.219a4.751 4.751 0 1 0 -3.359-1.392 4.712 4.712 0 0 0 3.359 1.392zm-.885-5.634a1.25 1.25 0 1 1 1.768 1.768 1.28 1.28 0 0 1 -1.767 0 1.252 1.252 0 0 1 0-1.768z"/></g></svg>