<?xml version="1.0" encoding="iso-8859-1"?>
<!-- Generator: Adobe Illustrator 19.1.0, SVG Export Plug-In . SVG Version: 6.00 Build 0)  -->
<svg version="1.1" id="Capa_1" xmlns="http://www.w3.org/2000/svg" xmlns:xlink="http://www.w3.org/1999/xlink" x="0px" y="0px"
	 viewBox="0 0 486 486" style="enable-background:new 0 0 486 486;" xml:space="preserve">
<g>
	<g>
		<path d="M396.95,178c49.1,0,89-39.9,89-89s-39.9-89-89-89s-89,39.9-89,89C308.05,138.1,347.95,178,396.95,178z M396.95,24.1
			c35.8,0,65,29.1,65,65s-29.1,65-65,65s-65-29.1-65-65S361.15,24.1,396.95,24.1z"/>
		<path d="M396.95,308c-30.5,0-57.4,15.4-73.4,38.8l-150.2-75.1c3.1-9,4.7-18.7,4.7-28.7c0-49.1-39.9-89-89-89s-89,39.9-89,89
			s39.9,89,89,89c30.5,0,57.4-15.4,73.4-38.8l150.2,75.1c-3.1,9-4.7,18.7-4.7,28.7c0,49.1,39.9,89,89,89s89-39.9,89-89
			C485.95,347.9,446.05,308,396.95,308z M89.15,308c-35.8,0-65-29.1-65-65s29.1-65,65-65s65,29.1,65,65S124.95,308,89.15,308z
			 M396.95,461.9c-35.8,0-65-29.1-65-65s29.1-65,65-65s65,29.1,65,65S432.75,461.9,396.95,461.9z"/>
		<path d="M285.65,156.8c1.8,0,3.6-0.4,5.4-1.3c5.9-3,8.3-10.2,5.4-16.1c-3-5.9-10.2-8.3-16.1-5.4c-5.9,3-8.3,10.2-5.4,16.1
			C276.95,154.3,281.15,156.8,285.65,156.8z"/>
		<path d="M200.55,199.3c1.8,0,3.6-0.4,5.4-1.3c5.9-3,8.3-10.2,5.4-16.1c-3-5.9-10.2-8.3-16.1-5.4c-5.9,3-8.3,10.2-5.4,16.1
			C191.85,196.9,196.15,199.3,200.55,199.3z"/>
		<path d="M243.05,178c1.8,0,3.6-0.4,5.3-1.3c5.9-3,8.3-10.2,5.4-16.1c-3-5.9-10.2-8.3-16.1-5.4c-5.9,3-8.3,10.2-5.4,16.1
			C234.45,175.6,238.65,178,243.05,178z"/>
	</g>
</g>
<g>
</g>
<g>
</g>
<g>
</g>
<g>
</g>
<g>
</g>
<g>
</g>
<g>
</g>
<g>
</g>
<g>
</g>
<g>
</g>
<g>
</g>
<g>
</g>
<g>
</g>
<g>
</g>
<g>
</g>
</svg>
